<svg id="Layer_1" data-name="Layer 1" xmlns="http://www.w3.org/2000/svg" viewBox="0 0 95 95"><path d="M81,70.2H24.8a.75.75,0,0,1-.75-.75V2.5a.76.76,0,0,1,.75-.75H81a.75.75,0,0,1,.75.75v67A.74.74,0,0,1,81,70.2Zm-55.4-1.5H80.2V3.25H25.55Z"/><path d="M14.05,78a.75.75,0,0,1-.75-.75v-64A11.51,11.51,0,0,1,24.8,1.75a.76.76,0,0,1,.75.75v67a.75.75,0,0,1-1.5,0V3.28a10,10,0,0,0-9.25,10v64A.76.76,0,0,1,14.05,78Z"/><path d="M81,85.83H39.6a.75.75,0,0,1,0-1.5H80.2V70.2H21.86a7.07,7.07,0,0,0,0,14.13h7a.75.75,0,0,1,0,1.5h-7a8.57,8.57,0,0,1,0-17.13H81a.75.75,0,0,1,.75.75V85.08A.74.74,0,0,1,81,85.83Z"/><path d="M81,75.14H28.89a.75.75,0,0,1,0-1.5H81a.75.75,0,0,1,0,1.5Z"/><path d="M81,80.89H28.89a.75.75,0,0,1,0-1.5H81a.75.75,0,0,1,0,1.5Z"/><path d="M54.84,56.2H32.68a.75.75,0,1,1,0-1.5H54.84a.75.75,0,0,1,0,1.5Z"/><path d="M65,61.36H32.68a.75.75,0,1,1,0-1.5H65a.75.75,0,0,1,0,1.5Z"/><path d="M39.6,93.25a.73.73,0,0,1-.5-.19l-4.85-4.29-4.86,4.29a.73.73,0,0,1-.81.12.75.75,0,0,1-.44-.68V80.14a.76.76,0,0,1,.75-.75H39.6a.76.76,0,0,1,.75.75V92.5a.75.75,0,0,1-.44.68A.7.7,0,0,1,39.6,93.25ZM34.25,87a.72.72,0,0,1,.49.19l4.11,3.63v-10H29.64v10l4.11-3.63A.73.73,0,0,1,34.25,87Z"/><path d="M48.5,40.63a.72.72,0,0,1-.35-.08c-.67-.35-16.28-8.62-16.28-19.11A9.54,9.54,0,0,1,48.5,15a9.57,9.57,0,0,1,7.07-3.15,9.25,9.25,0,0,1,9.54,9.16.74.74,0,0,1-.74.75h0a.75.75,0,0,1-.75-.74,7.69,7.69,0,0,0-8-7.67,8,8,0,0,0-6.47,3.28.78.78,0,0,1-1.21,0,8,8,0,0,0-6.47-3.28,8.06,8.06,0,0,0-8.05,8.05c0,8.75,12.77,16.28,15.11,17.58A56.73,56.73,0,0,0,54,35.19a.75.75,0,0,1,1,.13.74.74,0,0,1-.13,1,56.15,56.15,0,0,1-6,4.16A.71.71,0,0,1,48.5,40.63Z"/><path d="M60.36,40.63a.72.72,0,0,1-.35-.08c-.46-.24-11.41-6-11.41-13.46a6.85,6.85,0,0,1,11.76-4.77,6.85,6.85,0,0,1,11.76,4.77c0,6.8-10.92,13.18-11.39,13.44A.69.69,0,0,1,60.36,40.63ZM55.45,21.74a5.36,5.36,0,0,0-5.35,5.35C50.1,32.9,58.48,38,60.34,39c1.86-1.14,10.29-6.62,10.28-11.93A5.35,5.35,0,0,0,61,23.92a.77.77,0,0,1-1.2,0A5.32,5.32,0,0,0,55.45,21.74Z"/></svg>